<mxfile host="Electron" agent="Mozilla/5.0 (Windows NT 10.0; Win64; x64) AppleWebKit/537.36 (KHTML, like Gecko) draw.io/26.0.9 Chrome/128.0.6613.186 Electron/32.2.5 Safari/537.36" version="26.0.9">
  <diagram name="Page-1" id="UJuG5-QRgWP9qabhW5w2">
    <mxGraphModel dx="1160" dy="785" grid="1" gridSize="10" guides="1" tooltips="1" connect="1" arrows="1" fold="1" page="1" pageScale="1" pageWidth="850" pageHeight="1100" math="0" shadow="0">
      <root>
        <mxCell id="0" />
        <mxCell id="1" parent="0" />
        <mxCell id="oPUSCImCGUuc2X3ekpUz-1" value="Quản lý tài khoản và hồ sơ" style="swimlane;startSize=0;labelBorderColor=default;whiteSpace=wrap;html=1;labelBackgroundColor=default;" vertex="1" parent="1">
          <mxGeometry x="180" y="150" width="640" height="450" as="geometry">
            <mxRectangle x="210" y="110" width="180" height="30" as="alternateBounds" />
          </mxGeometry>
        </mxCell>
        <mxCell id="oPUSCImCGUuc2X3ekpUz-3" value="&lt;font style=&quot;font-size: 14px;&quot;&gt;UC1.1: Đăng nhập&lt;/font&gt;" style="ellipse;whiteSpace=wrap;html=1;" vertex="1" parent="oPUSCImCGUuc2X3ekpUz-1">
          <mxGeometry x="50" y="70" width="120" height="80" as="geometry" />
        </mxCell>
        <mxCell id="oPUSCImCGUuc2X3ekpUz-32" style="rounded=0;orthogonalLoop=1;jettySize=auto;html=1;exitX=1;exitY=0.5;exitDx=0;exitDy=0;entryX=0;entryY=0.5;entryDx=0;entryDy=0;endArrow=open;endFill=0;dashed=1;dashPattern=12 12;" edge="1" parent="oPUSCImCGUuc2X3ekpUz-1" source="oPUSCImCGUuc2X3ekpUz-4" target="oPUSCImCGUuc2X3ekpUz-31">
          <mxGeometry relative="1" as="geometry" />
        </mxCell>
        <mxCell id="oPUSCImCGUuc2X3ekpUz-33" value="&amp;lt;&amp;lt;include&amp;gt;&amp;gt;" style="edgeLabel;html=1;align=center;verticalAlign=middle;resizable=0;points=[];" vertex="1" connectable="0" parent="oPUSCImCGUuc2X3ekpUz-32">
          <mxGeometry x="-0.2259" y="1" relative="1" as="geometry">
            <mxPoint as="offset" />
          </mxGeometry>
        </mxCell>
        <mxCell id="oPUSCImCGUuc2X3ekpUz-4" value="&lt;font style=&quot;font-size: 14px;&quot;&gt;UC1.2: Đăng ký&lt;/font&gt;" style="ellipse;whiteSpace=wrap;html=1;" vertex="1" parent="oPUSCImCGUuc2X3ekpUz-1">
          <mxGeometry x="50" y="200" width="120" height="80" as="geometry" />
        </mxCell>
        <mxCell id="oPUSCImCGUuc2X3ekpUz-5" value="&lt;font style=&quot;font-size: 14px;&quot;&gt;UC1.3: Khôi phục mật khẩu&lt;/font&gt;" style="ellipse;whiteSpace=wrap;html=1;" vertex="1" parent="oPUSCImCGUuc2X3ekpUz-1">
          <mxGeometry x="50" y="330" width="120" height="80" as="geometry" />
        </mxCell>
        <mxCell id="oPUSCImCGUuc2X3ekpUz-20" style="rounded=0;orthogonalLoop=1;jettySize=auto;html=1;entryX=0.99;entryY=0.618;entryDx=0;entryDy=0;endArrow=open;startFill=0;dashed=1;dashPattern=12 12;endFill=0;entryPerimeter=0;" edge="1" parent="oPUSCImCGUuc2X3ekpUz-1" source="oPUSCImCGUuc2X3ekpUz-7" target="oPUSCImCGUuc2X3ekpUz-3">
          <mxGeometry relative="1" as="geometry" />
        </mxCell>
        <mxCell id="oPUSCImCGUuc2X3ekpUz-21" value="&amp;lt;&amp;lt;include&amp;gt;&amp;gt;" style="edgeLabel;html=1;align=center;verticalAlign=middle;resizable=0;points=[];" vertex="1" connectable="0" parent="oPUSCImCGUuc2X3ekpUz-20">
          <mxGeometry x="0.3991" relative="1" as="geometry">
            <mxPoint x="32" as="offset" />
          </mxGeometry>
        </mxCell>
        <mxCell id="oPUSCImCGUuc2X3ekpUz-7" value="&lt;font style=&quot;font-size: 14px;&quot;&gt;UC1.4: Đăng xuất&lt;/font&gt;" style="ellipse;whiteSpace=wrap;html=1;" vertex="1" parent="oPUSCImCGUuc2X3ekpUz-1">
          <mxGeometry x="280" y="10" width="120" height="80" as="geometry" />
        </mxCell>
        <mxCell id="oPUSCImCGUuc2X3ekpUz-22" style="rounded=0;orthogonalLoop=1;jettySize=auto;html=1;exitX=0;exitY=0;exitDx=0;exitDy=0;endArrow=open;endFill=0;dashed=1;dashPattern=12 12;entryX=0.724;entryY=0.971;entryDx=0;entryDy=0;entryPerimeter=0;" edge="1" parent="oPUSCImCGUuc2X3ekpUz-1" source="oPUSCImCGUuc2X3ekpUz-16" target="oPUSCImCGUuc2X3ekpUz-3">
          <mxGeometry relative="1" as="geometry">
            <mxPoint x="140" y="230" as="targetPoint" />
          </mxGeometry>
        </mxCell>
        <mxCell id="oPUSCImCGUuc2X3ekpUz-23" value="&amp;lt;&amp;lt;include&amp;gt;&amp;gt;" style="edgeLabel;html=1;align=center;verticalAlign=middle;resizable=0;points=[];" vertex="1" connectable="0" parent="oPUSCImCGUuc2X3ekpUz-22">
          <mxGeometry x="0.1626" y="2" relative="1" as="geometry">
            <mxPoint as="offset" />
          </mxGeometry>
        </mxCell>
        <mxCell id="oPUSCImCGUuc2X3ekpUz-16" value="&lt;span style=&quot;font-size: 14px;&quot;&gt;UC1.5: Chỉnh sửa hồ sơ&lt;/span&gt;" style="ellipse;whiteSpace=wrap;html=1;" vertex="1" parent="oPUSCImCGUuc2X3ekpUz-1">
          <mxGeometry x="260" y="160" width="120" height="80" as="geometry" />
        </mxCell>
        <mxCell id="oPUSCImCGUuc2X3ekpUz-27" style="rounded=0;orthogonalLoop=1;jettySize=auto;html=1;exitX=0;exitY=0.5;exitDx=0;exitDy=0;entryX=1;entryY=0;entryDx=0;entryDy=0;endArrow=open;endFill=0;dashed=1;dashPattern=12 12;" edge="1" parent="oPUSCImCGUuc2X3ekpUz-1" source="oPUSCImCGUuc2X3ekpUz-18" target="oPUSCImCGUuc2X3ekpUz-16">
          <mxGeometry relative="1" as="geometry" />
        </mxCell>
        <mxCell id="oPUSCImCGUuc2X3ekpUz-28" value="&amp;lt;&amp;lt;extends&amp;gt;&amp;gt;" style="edgeLabel;html=1;align=center;verticalAlign=middle;resizable=0;points=[];" vertex="1" connectable="0" parent="oPUSCImCGUuc2X3ekpUz-27">
          <mxGeometry x="-0.0193" y="1" relative="1" as="geometry">
            <mxPoint as="offset" />
          </mxGeometry>
        </mxCell>
        <mxCell id="oPUSCImCGUuc2X3ekpUz-34" style="rounded=0;orthogonalLoop=1;jettySize=auto;html=1;entryX=0.5;entryY=0;entryDx=0;entryDy=0;dashed=1;dashPattern=12 12;endArrow=open;endFill=0;" edge="1" parent="oPUSCImCGUuc2X3ekpUz-1" source="oPUSCImCGUuc2X3ekpUz-18" target="oPUSCImCGUuc2X3ekpUz-31">
          <mxGeometry relative="1" as="geometry" />
        </mxCell>
        <mxCell id="oPUSCImCGUuc2X3ekpUz-35" value="&amp;lt;&amp;lt;include&amp;gt;&amp;gt;" style="edgeLabel;html=1;align=center;verticalAlign=middle;resizable=0;points=[];" vertex="1" connectable="0" parent="oPUSCImCGUuc2X3ekpUz-34">
          <mxGeometry x="0.2961" y="-2" relative="1" as="geometry">
            <mxPoint as="offset" />
          </mxGeometry>
        </mxCell>
        <mxCell id="oPUSCImCGUuc2X3ekpUz-18" value="&lt;span style=&quot;font-size: 14px;&quot;&gt;Thay đổi username&lt;/span&gt;" style="ellipse;whiteSpace=wrap;html=1;" vertex="1" parent="oPUSCImCGUuc2X3ekpUz-1">
          <mxGeometry x="440" y="60" width="120" height="80" as="geometry" />
        </mxCell>
        <mxCell id="oPUSCImCGUuc2X3ekpUz-29" style="rounded=0;orthogonalLoop=1;jettySize=auto;html=1;exitX=0;exitY=0.5;exitDx=0;exitDy=0;entryX=1;entryY=0.5;entryDx=0;entryDy=0;endArrow=open;endFill=0;dashed=1;dashPattern=12 12;" edge="1" parent="oPUSCImCGUuc2X3ekpUz-1" source="oPUSCImCGUuc2X3ekpUz-19" target="oPUSCImCGUuc2X3ekpUz-16">
          <mxGeometry relative="1" as="geometry" />
        </mxCell>
        <mxCell id="oPUSCImCGUuc2X3ekpUz-30" value="&amp;lt;&amp;lt;extends&amp;gt;&amp;gt;" style="edgeLabel;html=1;align=center;verticalAlign=middle;resizable=0;points=[];" vertex="1" connectable="0" parent="oPUSCImCGUuc2X3ekpUz-29">
          <mxGeometry x="0.0224" y="2" relative="1" as="geometry">
            <mxPoint as="offset" />
          </mxGeometry>
        </mxCell>
        <mxCell id="oPUSCImCGUuc2X3ekpUz-36" style="rounded=0;orthogonalLoop=1;jettySize=auto;html=1;entryX=1;entryY=0.5;entryDx=0;entryDy=0;dashed=1;dashPattern=12 12;endArrow=open;endFill=0;" edge="1" parent="oPUSCImCGUuc2X3ekpUz-1" source="oPUSCImCGUuc2X3ekpUz-19" target="oPUSCImCGUuc2X3ekpUz-31">
          <mxGeometry relative="1" as="geometry" />
        </mxCell>
        <mxCell id="oPUSCImCGUuc2X3ekpUz-37" value="&amp;lt;&amp;lt;include&amp;gt;&amp;gt;" style="edgeLabel;html=1;align=center;verticalAlign=middle;resizable=0;points=[];" vertex="1" connectable="0" parent="oPUSCImCGUuc2X3ekpUz-36">
          <mxGeometry x="-0.0069" y="-3" relative="1" as="geometry">
            <mxPoint as="offset" />
          </mxGeometry>
        </mxCell>
        <mxCell id="oPUSCImCGUuc2X3ekpUz-19" value="&lt;span style=&quot;font-size: 14px;&quot;&gt;&amp;nbsp;Thay đổi mật khẩu&lt;/span&gt;" style="ellipse;whiteSpace=wrap;html=1;" vertex="1" parent="oPUSCImCGUuc2X3ekpUz-1">
          <mxGeometry x="520" y="150" width="120" height="80" as="geometry" />
        </mxCell>
        <mxCell id="oPUSCImCGUuc2X3ekpUz-31" value="&lt;span style=&quot;font-size: 14px;&quot;&gt;Kiểm tra ràng buộc dữ liệu&lt;/span&gt;" style="ellipse;whiteSpace=wrap;html=1;" vertex="1" parent="oPUSCImCGUuc2X3ekpUz-1">
          <mxGeometry x="270" y="310" width="120" height="80" as="geometry" />
        </mxCell>
        <mxCell id="oPUSCImCGUuc2X3ekpUz-8" style="rounded=0;orthogonalLoop=1;jettySize=auto;html=1;exitX=0.5;exitY=0.5;exitDx=0;exitDy=0;exitPerimeter=0;entryX=0;entryY=0.5;entryDx=0;entryDy=0;endArrow=none;startFill=0;" edge="1" parent="1" source="oPUSCImCGUuc2X3ekpUz-2" target="oPUSCImCGUuc2X3ekpUz-4">
          <mxGeometry relative="1" as="geometry" />
        </mxCell>
        <mxCell id="oPUSCImCGUuc2X3ekpUz-9" style="rounded=0;orthogonalLoop=1;jettySize=auto;html=1;exitX=0.5;exitY=0.5;exitDx=0;exitDy=0;exitPerimeter=0;entryX=0;entryY=0.5;entryDx=0;entryDy=0;endArrow=none;startFill=0;" edge="1" parent="1" source="oPUSCImCGUuc2X3ekpUz-2" target="oPUSCImCGUuc2X3ekpUz-3">
          <mxGeometry relative="1" as="geometry" />
        </mxCell>
        <mxCell id="oPUSCImCGUuc2X3ekpUz-26" style="rounded=0;orthogonalLoop=1;jettySize=auto;html=1;exitX=0.5;exitY=0.5;exitDx=0;exitDy=0;exitPerimeter=0;entryX=0;entryY=0.5;entryDx=0;entryDy=0;endArrow=none;startFill=0;" edge="1" parent="1" source="oPUSCImCGUuc2X3ekpUz-2" target="oPUSCImCGUuc2X3ekpUz-5">
          <mxGeometry relative="1" as="geometry" />
        </mxCell>
        <mxCell id="oPUSCImCGUuc2X3ekpUz-2" value="&lt;font style=&quot;font-size: 18px;&quot;&gt;User&lt;/font&gt;" style="shape=umlActor;verticalLabelPosition=bottom;verticalAlign=top;html=1;outlineConnect=0;" vertex="1" parent="1">
          <mxGeometry x="120" y="260" width="30" height="60" as="geometry" />
        </mxCell>
      </root>
    </mxGraphModel>
  </diagram>
</mxfile>
